<?xml version="1.0" encoding="iso-8859-1"?>
<!-- Generator: Adobe Illustrator 19.0.0, SVG Export Plug-In . SVG Version: 6.00 Build 0)  -->
<svg version="1.1" id="Layer_1" xmlns="http://www.w3.org/2000/svg" xmlns:xlink="http://www.w3.org/1999/xlink" x="0px" y="0px"
	 viewBox="0 0 511.968 511.968" style="enable-background:new 0 0 511.968 511.968;" xml:space="preserve">
<g>
	<g>
		<path d="M466.96,43.968H45.152c-22.864,0-41.456,18.896-41.456,42.096v224.912c0,23.2,18.592,42.096,41.456,42.096H466.96
			c22.848,0,41.424-18.896,41.424-42.096V86.064C508.384,62.864,489.808,43.968,466.96,43.968z M492.384,310.976
			c0,14.384-11.408,26.096-25.424,26.096H45.152c-14.032,0-25.456-11.696-25.456-26.096V86.064
			c0-14.384,11.424-26.096,25.456-26.096H466.96c14.016,0,25.424,11.696,25.424,26.096V310.976z"/>
	</g>
</g>
<g>
	<g>
		<path d="M204.352,116.752v163.52l140.368-81.76L204.352,116.752z M220.352,144.576l92.592,53.92l-92.592,53.92V144.576z"/>
	</g>
</g>
<g>
	<g>
		<path d="M451.104,420.8c-3.664-17.808-19.296-31.184-38.032-31.184s-34.368,13.376-38.032,31.184H0v16h375.056
			c3.648,17.824,19.28,31.2,38.032,31.2c18.736,0,34.368-13.392,38.032-31.2h60.848v-16H451.104z M413.088,452.016
			c-12.608,0-22.848-10.4-22.848-23.2c-0.016-12.8,10.24-23.2,22.848-23.2c12.608,0,22.848,10.4,22.848,23.2
			C435.936,441.6,425.68,452.016,413.088,452.016z"/>
	</g>
</g>
<g>
</g>
<g>
</g>
<g>
</g>
<g>
</g>
<g>
</g>
<g>
</g>
<g>
</g>
<g>
</g>
<g>
</g>
<g>
</g>
<g>
</g>
<g>
</g>
<g>
</g>
<g>
</g>
<g>
</g>
</svg>
